<svg width="44" height="45" viewBox="0 0 44 45" fill="none" xmlns="http://www.w3.org/2000/svg">
<g clip-path="url(#clip0_239_12953)">
<path d="M9.35242 26.8204C9.3484 26.8221 9.34437 26.8238 9.34 26.8255C7.53196 27.5694 5.58594 29.7017 5.58594 32.6252V42.6514C5.58594 43.6233 6.3765 44.4141 7.34833 44.4141H36.8115C37.7834 44.4141 38.5742 43.6233 38.5742 42.6514V39.2153C38.5742 38.8594 38.2856 38.5707 37.9294 38.5707C37.5735 38.5707 37.2848 38.8594 37.2848 39.2153V42.6514C37.2848 42.9126 37.0727 43.1251 36.8115 43.1251H33.3851V33.6625C33.3851 33.3067 33.0967 33.018 32.7406 33.018C32.3844 33.018 32.096 33.3067 32.096 33.6625V43.1251H30.7939V39.5207C30.7939 37.9101 29.6414 36.5643 28.1177 36.2632V33.0956L28.6209 32.5212C29.0805 32.1318 29.2279 31.4906 28.9768 30.9354L28.3537 29.5587C28.342 29.5322 28.3497 29.5016 28.3728 29.4845H28.3732L29.7794 28.4314C30.1181 28.178 30.3205 27.7738 30.3205 27.3505V26.4653L34.3354 28.0202C35.9129 28.6728 37.2848 30.5084 37.2848 32.6252V36.2074C37.2848 36.5633 37.5735 36.852 37.9294 36.852C38.2856 36.852 38.5742 36.5633 38.5742 36.2074V32.6252C38.5742 30.1203 37.0304 27.7352 34.8202 26.8255C34.8158 26.8238 34.8118 26.8221 34.8074 26.8204C34.4479 26.6811 26.5124 23.6078 26.1546 23.4692L26.1529 21.786C27.6286 20.7058 28.6511 19.0431 28.8801 17.1393C30.5643 17.0044 31.8057 15.665 31.8057 14.1204C31.8057 13.061 31.2504 12.0677 30.4068 11.4993C30.5055 11.2761 30.5609 11.0297 30.5609 10.7706V5.82243C30.5609 4.27152 29.2171 3.13889 27.8391 3.2443C27.5658 3.26578 27.3349 3.10599 27.2879 2.8653C26.9656 1.21604 25.9266 0.414062 24.1122 0.414062H22.515C22.1588 0.414062 21.8701 0.702759 21.8701 1.0586C21.8701 1.41477 22.1588 1.70313 22.515 1.70313H24.1122C25.6222 1.70313 25.8776 2.37015 26.023 3.11271C26.1945 3.99155 27.0183 4.60084 27.9381 4.52967C28.586 4.47965 29.2722 5.04194 29.2722 5.82243V10.7706C29.2722 11.1851 28.8213 11.5128 28.0496 11.1314C27.1103 10.6675 27.1714 9.71044 27.1502 9.58287C27.0317 8.87489 26.0737 8.70906 25.7313 9.34957C25.0978 10.5349 23.8641 11.2952 22.4885 11.2952C21.7023 11.2952 15.9206 11.2952 15.1096 11.2952C14.4684 11.2952 13.9346 10.7736 13.9346 10.1207V5.37931C13.9346 3.35239 15.5839 1.70313 17.6108 1.70313H19.5068C19.863 1.70313 20.1514 1.41477 20.1514 1.0586C20.1514 0.702759 19.863 0.414062 19.5068 0.414062H17.6108C14.8729 0.414062 12.6456 2.64139 12.6456 5.37931V10.1207C12.6456 10.8011 12.9229 11.4181 13.3707 11.8642C12.7399 12.4487 12.3545 13.2678 12.3545 14.1204C12.3545 15.6609 13.5912 17.0041 15.2794 17.139C15.502 19.0092 16.4879 20.6823 18.0016 21.7783V23.4638C17.9633 23.485 9.39338 26.8046 9.35242 26.8204ZM16.6699 37.6862C17.4722 37.7023 18.1204 38.3589 18.1204 39.1652C18.1204 39.9813 17.4561 40.6453 16.64 40.6453C15.8236 40.6453 15.1596 39.9813 15.1596 39.1652C15.1596 38.4378 15.689 37.7248 16.6699 37.6862ZM16.547 31.6299C16.5181 31.597 16.4863 31.5671 16.4513 31.541C16.4285 31.5235 16.4208 31.4929 16.4325 31.4668L17.0553 30.0901C17.3184 29.5083 17.1452 28.8349 16.6343 28.4526L15.2281 27.3995C15.2126 27.3881 15.2036 27.3696 15.2036 27.3505V25.9349L17.0741 25.2098C17.1684 25.5072 20.3753 35.6086 20.57 36.2219L16.547 31.6299ZM20.3508 29.933L20.3535 29.94L20.1641 30.6826L20.0285 30.2556L20.3508 29.933ZM23.3485 32.9579L22.1175 36.8359L20.9016 33.0063L21.528 30.5496H22.6489L23.3485 32.9579ZM24.0494 30.7501L23.8131 29.937L24.1884 30.3123L24.0494 30.7501ZM22.0803 28.2028L22.8054 28.9282L22.6832 29.2606H21.477L21.3545 28.9286C21.425 28.8581 21.9859 28.2968 22.0803 28.2028ZM25.6645 24.6619C25.6682 24.6636 25.9438 24.77 25.9475 24.7717C24.7524 28.5351 25.1549 27.2682 24.6278 28.9282C24.2589 28.559 24.1941 28.4942 22.7305 27.0299C23.375 26.5065 24.7954 25.3544 25.6645 24.6619ZM19.5891 28.8715L18.2785 24.7428C18.3547 24.7143 18.4182 24.6915 18.4917 24.6586C19.3151 25.3145 20.6371 26.3864 21.4293 27.0299C21.2343 27.2253 19.8435 28.6171 19.5891 28.8715ZM6.875 42.6514V32.6252C6.875 30.4097 8.35676 28.6278 9.82475 28.0202L13.9142 26.4347V27.3505C13.9142 27.7738 14.1166 28.178 14.4553 28.4314L15.8619 29.4845C15.8847 29.5016 15.8927 29.5322 15.8807 29.5587L15.258 30.9357C15.0069 31.4906 15.1542 32.1318 15.6138 32.5212L15.9998 32.9616V36.471C14.7803 36.761 13.8705 37.8584 13.8705 39.1649C13.8705 40.692 15.1129 41.9344 16.64 41.9344C18.1671 41.9344 19.4095 40.692 19.4095 39.1649C19.4095 37.8614 18.5041 36.766 17.2889 36.473V34.433L21.473 39.2089V43.1251H12.1387V33.6625C12.1387 33.3067 11.8503 33.018 11.4942 33.018C11.138 33.018 10.8496 33.3067 10.8496 33.6625V43.1251H7.34867C7.0875 43.1251 6.875 42.9126 6.875 42.6514ZM29.5048 39.5207V43.1251H25.4412V39.5207C25.4412 38.4005 26.3526 37.4891 27.4732 37.4891C28.5934 37.4891 29.5048 38.4005 29.5048 39.5207ZM26.8287 36.2632C25.3049 36.5643 24.1522 37.9101 24.1522 39.5207V43.1251H22.7621V39.2089L26.8283 34.5672V36.2632H26.8287ZM29.0315 27.3505C29.0315 27.3696 29.0224 27.3881 29.007 27.3995L27.6007 28.4526C27.0895 28.8349 26.9163 29.5083 27.1795 30.0901L27.8022 31.4668C27.8142 31.4929 27.8065 31.5235 27.7837 31.5406C27.7488 31.5671 27.7166 31.597 27.688 31.6299L23.6651 36.2219C23.7597 35.9228 27.1106 25.3675 27.1519 25.238L29.0315 25.9657V27.3505ZM28.9308 15.8372V12.5752C29.0076 12.5752 29.2698 12.5199 29.4598 12.4383C30.0842 12.7243 30.5166 13.395 30.5166 14.1204C30.5166 14.9969 29.8133 15.7009 28.9308 15.8372ZM13.6436 14.1204C13.6436 13.4887 14.0377 12.8629 14.6221 12.536C14.891 12.59 15.0888 12.5846 15.2294 12.5846V15.8369C14.3449 15.7006 13.6436 14.9959 13.6436 14.1204ZM16.5185 16.3273V12.5846H22.4885C23.9309 12.5846 25.2482 11.964 26.1596 10.9626C26.4624 11.5853 26.9847 12.0818 27.6242 12.3544C27.6303 12.3567 27.636 12.3597 27.6417 12.3621V16.3273C27.6417 19.3076 25.2197 21.8001 22.1685 21.8001C18.8626 21.8001 16.5185 19.2549 16.5185 16.3273ZM24.8648 22.5272C24.8658 23.5816 24.8622 23.5296 24.8759 23.6421C24.0995 24.2604 22.8853 25.244 22.0799 25.8976C21.2729 25.2423 20.0564 24.2571 19.2816 23.6401C19.294 23.5263 19.2906 23.5803 19.2906 22.5108C21.0675 23.2735 23.0719 23.2956 24.8648 22.5272Z" fill="#2B6BDC"/>
<path d="M16.64 39.8095C16.9884 39.8095 17.2845 39.5276 17.2845 39.165C17.2845 38.8451 17.0499 38.5876 16.7662 38.5332C16.3697 38.4517 15.9951 38.7582 15.9951 39.165C15.9951 39.5259 16.2895 39.8095 16.64 39.8095Z" fill="#2B6BDC"/>
</g>
<defs>
<clipPath id="clip0_239_12953">
<rect width="44" height="44" fill="white" transform="translate(0 0.5)"/>
</clipPath>
</defs>
</svg>
