<svg width="44" height="45" viewBox="0 0 44 45" fill="none" xmlns="http://www.w3.org/2000/svg">
<path d="M19.8 32.7667H19.0666V32.0334C19.0666 31.6284 18.7383 31.3 18.3333 31.3C17.9283 31.3 17.6 31.6284 17.6 32.0334V32.7667H16.8666C16.4617 32.7667 16.1333 33.0951 16.1333 33.5C16.1333 33.905 16.4617 34.2334 16.8666 34.2334H17.6V34.9667C17.6 35.3717 17.9283 35.7001 18.3333 35.7001C18.7383 35.7001 19.0666 35.3717 19.0666 34.9667V34.2334H19.8C20.2049 34.2334 20.5333 33.905 20.5333 33.5C20.5333 33.0951 20.2049 32.7667 19.8 32.7667Z" fill="#2B6BDC"/>
<path d="M13.2002 38.6334H23.4669V28.3667H13.2002V38.6334ZM14.6669 29.8334H22.0002V37.1667H14.6669V29.8334Z" fill="#2B6BDC"/>
<path d="M3.6665 2.7V42.3C3.6665 43.5149 4.65156 44.5 5.8665 44.5H30.7998C32.0148 44.5 32.9998 43.5149 32.9998 42.3V2.7C32.9998 1.48506 32.0148 0.5 30.7998 0.5H5.8665C4.65156 0.5 3.6665 1.48506 3.6665 2.7ZM31.5332 2.7V42.3C31.5332 42.705 31.2048 43.0333 30.7998 43.0333H5.8665C5.46152 43.0333 5.13317 42.705 5.13317 42.3V2.7C5.13317 2.29502 5.46152 1.96667 5.8665 1.96667H10.9998V3.43333H7.33317C6.92819 3.43333 6.59984 3.76169 6.59984 4.16667V40.8333C6.59984 41.2383 6.92819 41.5667 7.33317 41.5667H29.3332C29.7382 41.5667 30.0665 41.2383 30.0665 40.8333V4.16667C30.0665 3.76169 29.7382 3.43333 29.3332 3.43333H25.6665V1.96667H30.7998C31.2048 1.96667 31.5332 2.29502 31.5332 2.7ZM15.3998 7.83333H21.2665C23.1292 7.83118 24.7889 6.65635 25.4098 4.9H28.5998V40.1H8.0665V4.9H11.2566C11.8775 6.65635 13.5371 7.83118 15.3998 7.83333ZM12.8743 4.9H23.792C23.2721 5.80449 22.3096 6.36344 21.2665 6.36667H15.3998C14.3568 6.36344 13.3943 5.80449 12.8743 4.9ZM24.1998 1.96667V3.43333H12.4665V1.96667H24.1998Z" fill="#2B6BDC"/>
<path d="M14.6665 22.5H21.9998V23.9667H14.6665V22.5Z" fill="#2B6BDC"/>
<path d="M16.1333 25.4333H20.5333V26.9H16.1333V25.4333Z" fill="#2B6BDC"/>
<path d="M13.2001 21.0334H23.4668C23.8718 21.0334 24.2001 20.705 24.2001 20.3V10.0334C24.2001 9.6284 23.8718 9.30005 23.4668 9.30005H13.2001C12.7951 9.30005 12.4668 9.6284 12.4668 10.0334V20.3C12.4668 20.705 12.7951 21.0334 13.2001 21.0334ZM17.6001 14.4334C17.6001 14.0284 17.9285 13.7 18.3335 13.7C18.7384 13.7 19.0668 14.0284 19.0668 14.4334C19.0668 14.8384 18.7384 15.1667 18.3335 15.1667C17.9285 15.1667 17.6001 14.8384 17.6001 14.4334ZM16.8668 19.5667V18.1C16.8668 17.2901 17.5235 16.6334 18.3335 16.6334C19.1434 16.6334 19.8001 17.2901 19.8001 18.1V19.5667H16.8668ZM13.9335 10.7667H22.7335V19.5667H21.2668V18.1C21.2643 17.1751 20.8239 16.3061 20.0794 15.7572C20.3723 15.3776 20.5317 14.9125 20.5335 14.4334C20.5335 13.2184 19.5484 12.2334 18.3335 12.2334C17.1185 12.2334 16.1335 13.2184 16.1335 14.4334C16.136 14.9114 16.2953 15.3751 16.5875 15.7532C15.842 16.3029 15.4012 17.1737 15.4001 18.1V19.5667H13.9335V10.7667Z" fill="#2B6BDC"/>
<path d="M34.5341 22.9325C34.5277 22.9486 34.5241 22.9648 34.5173 22.9809C34.4933 23.0636 34.4765 23.1481 34.4668 23.2333V42.3C34.4668 43.5149 35.4519 44.5 36.6668 44.5H38.1335C39.3484 44.5 40.3335 43.5149 40.3335 42.3V23.2333C40.3238 23.1481 40.307 23.0636 40.283 22.9809C40.2762 22.9648 40.2726 22.9486 40.2661 22.9325C40.2593 22.9164 40.2608 22.9143 40.2565 22.9057L38.0565 18.5057C37.9186 18.2744 37.6694 18.1326 37.4001 18.1326C37.1309 18.1326 36.8816 18.2744 36.7438 18.5057L34.5438 22.9057C34.5402 22.9143 34.5402 22.9239 34.5341 22.9325ZM38.8668 40.1H35.9335V23.9667H38.8668V40.1ZM38.8668 42.3C38.8668 42.705 38.5384 43.0333 38.1335 43.0333H36.6668C36.2618 43.0333 35.9335 42.705 35.9335 42.3V41.5666H38.8668V42.3ZM37.4001 20.4729L38.4135 22.5H36.3868L37.4001 20.4729Z" fill="#2B6BDC"/>
</svg>
