<svg width="48" height="48" viewBox="0 0 48 48" fill="none" xmlns="http://www.w3.org/2000/svg">
<g clip-path="url(#clip0_243_13847)">
<path d="M21.75 4.875H20.625V3.75C20.625 3.55109 20.546 3.36032 20.4053 3.21967C20.2647 3.07902 20.0739 3 19.875 3C19.6761 3 19.4853 3.07902 19.3447 3.21967C19.204 3.36032 19.125 3.55109 19.125 3.75V4.875H18C17.8011 4.875 17.6103 4.95402 17.4697 5.09467C17.329 5.23532 17.25 5.42609 17.25 5.625C17.25 5.82391 17.329 6.01468 17.4697 6.15533C17.6103 6.29598 17.8011 6.375 18 6.375H19.125V7.5C19.125 7.69891 19.204 7.88968 19.3447 8.03033C19.4853 8.17098 19.6761 8.25 19.875 8.25C20.0739 8.25 20.2647 8.17098 20.4053 8.03033C20.546 7.88968 20.625 7.69891 20.625 7.5V6.375H21.75C21.9489 6.375 22.1397 6.29598 22.2803 6.15533C22.421 6.01468 22.5 5.82391 22.5 5.625C22.5 5.42609 22.421 5.23532 22.2803 5.09467C22.1397 4.95402 21.9489 4.875 21.75 4.875Z" fill="#348FFF"/>
<path d="M28.8225 37.5675C28.6419 35.1659 28.2656 32.783 27.6975 30.4425C27.8729 30.4448 28.0435 30.3854 28.1797 30.2749C28.3158 30.1644 28.409 30.0096 28.4429 29.8375C28.4767 29.6654 28.4492 29.4869 28.3651 29.333C28.281 29.179 28.1456 29.0595 27.9825 28.995C27.3225 28.7513 25.0425 27.9788 24.3413 27.825C26.0375 26.9913 27.4665 25.6994 28.4666 24.0956C29.4666 22.4918 29.9978 20.6401 30 18.75V4.87505C30.0149 4.23079 29.8989 3.5902 29.6592 2.99201C29.4195 2.39383 29.061 1.85047 28.6053 1.39478C28.1496 0.939098 27.6062 0.580555 27.008 0.340829C26.4098 0.101103 25.7693 -0.0148262 25.125 4.93607e-05H14.895C12.06 4.93607e-05 9.75 2.1863 9.75 4.87505V18.75C9.75026 20.6553 10.2881 22.5219 11.3017 24.1352C12.3153 25.7485 13.7636 27.043 15.48 27.87C11.0873 28.8716 7.16428 31.3339 4.3524 34.8542C1.54051 38.3745 0.0060934 42.7446 0 47.25C0 47.449 0.0790176 47.6397 0.21967 47.7804C0.360322 47.921 0.551088 48 0.75 48C0.948912 48 1.13968 47.921 1.28033 47.7804C1.42098 47.6397 1.5 47.449 1.5 47.25C1.50098 43.797 2.47489 40.4142 4.31011 37.4892C6.14532 34.5643 8.76757 32.2157 11.8763 30.7125C11.5099 32.2207 11.3 33.7626 11.25 35.3138C10.1019 35.4926 9.05534 36.0755 8.29903 36.9577C7.54272 37.8398 7.12636 38.9631 7.125 40.125V45.75C7.15488 46.3371 7.40153 46.8922 7.81719 47.3079C8.23284 47.7235 8.78794 47.9702 9.375 48C9.57391 48 9.76468 47.921 9.90533 47.7804C10.046 47.6397 10.125 47.449 10.125 47.25C10.125 47.0511 10.046 46.8604 9.90533 46.7197C9.76468 46.5791 9.57391 46.5 9.375 46.5C9.18503 46.4746 9.00871 46.3874 8.87318 46.2519C8.73765 46.1163 8.65045 45.94 8.625 45.75V40.125C8.625 39.2299 8.98058 38.3715 9.61351 37.7386C10.2465 37.1056 11.1049 36.75 12 36.75C12.8951 36.75 13.7535 37.1056 14.3865 37.7386C15.0194 38.3715 15.375 39.2299 15.375 40.125V45.75C15.3496 45.94 15.2623 46.1163 15.1268 46.2519C14.9913 46.3874 14.815 46.4746 14.625 46.5C14.4261 46.5 14.2353 46.5791 14.0947 46.7197C13.954 46.8604 13.875 47.0511 13.875 47.25C13.875 47.449 13.954 47.6397 14.0947 47.7804C14.2353 47.921 14.4261 48 14.625 48C15.2121 47.9702 15.7672 47.7235 16.1828 47.3079C16.5985 46.8922 16.8451 46.3371 16.875 45.75V40.125C16.8736 38.9631 16.4573 37.8398 15.701 36.9577C14.9447 36.0755 13.8981 35.4926 12.75 35.3138C12.7987 33.9938 13.0425 31.2113 13.7625 29.9213L19.35 37.2188C19.4239 37.3064 19.5161 37.3768 19.62 37.4251C19.724 37.4734 19.8372 37.4985 19.9519 37.4985C20.0665 37.4985 20.1798 37.4734 20.2837 37.4251C20.3877 37.3768 20.4798 37.3064 20.5538 37.2188L25.9237 29.8725C26.7712 32.25 27.18 36.03 27.3187 37.59C26.4111 37.7896 25.6099 38.319 25.0704 39.0757C24.531 39.8323 24.2917 40.7624 24.3989 41.6855C24.5062 42.6086 24.9524 43.4589 25.651 44.0717C26.3496 44.6845 27.2509 45.0161 28.1801 45.0022C29.1093 44.9882 30.0002 44.6298 30.6801 43.9963C31.3601 43.3628 31.7806 42.4994 31.8601 41.5736C31.9396 40.6477 31.6725 39.7252 31.1106 38.9851C30.5487 38.2449 29.732 37.7397 28.8187 37.5675H28.8225ZM28.5 14.2275C23.7638 14.0213 20.625 12.42 18.9375 11.25H28.5V14.2275ZM11.25 4.87505C11.25 3.00005 12.885 1.50005 14.895 1.50005H25.125C25.5712 1.48926 26.0149 1.56918 26.4292 1.73497C26.8436 1.90076 27.2199 2.14896 27.5355 2.46453C27.8511 2.78011 28.0993 3.15648 28.2651 3.57083C28.4309 3.98519 28.5108 4.42889 28.5 4.87505V9.75005H11.25V4.87505ZM11.25 18.75V11.25H16.5563C17.5238 12.2025 21.315 15.4388 28.5 15.75V18.75C28.5 21.0375 27.5913 23.2313 25.9738 24.8488C24.3563 26.4663 22.1625 27.375 19.875 27.375C17.5875 27.375 15.3937 26.4663 13.7762 24.8488C12.1587 23.2313 11.25 21.0375 11.25 18.75ZM19.935 35.5125L15.3 29.4525C16.7944 29.0672 18.3317 28.8731 19.875 28.875C21.4029 28.8708 22.9259 29.047 24.4125 29.4L19.935 35.5125ZM28.125 43.5C27.68 43.5 27.245 43.3681 26.875 43.1209C26.505 42.8736 26.2166 42.5222 26.0463 42.1111C25.876 41.6999 25.8314 41.2476 25.9182 40.8111C26.005 40.3746 26.2193 39.9737 26.534 39.6591C26.8487 39.3444 27.2496 39.1301 27.686 39.0433C28.1225 38.9565 28.5749 39.001 28.986 39.1713C29.3972 39.3416 29.7486 39.63 29.9958 40C30.243 40.37 30.375 40.805 30.375 41.25C30.375 41.8468 30.1379 42.4191 29.716 42.841C29.294 43.263 28.7217 43.5 28.125 43.5Z" fill="#348FFF"/>
<path d="M46.7812 29.9549C46.0312 29.3512 46.0612 29.4974 46.335 28.5299C46.515 27.8774 46.7437 27.0674 46.2825 26.4337C45.8212 25.7999 44.97 25.7587 44.2913 25.7324C43.29 25.6912 43.4138 25.7849 43.0725 24.8512C42.8363 24.2099 42.5437 23.4074 41.7825 23.1637C41.0212 22.9199 40.3763 23.3662 39.7913 23.7562C38.9363 24.3262 39.0637 24.3262 38.2087 23.7562C37.6237 23.3812 36.9563 22.9237 36.2175 23.1637C35.4788 23.4037 35.1637 24.2099 34.9275 24.8512C34.5862 25.7849 34.71 25.6912 33.7125 25.7324C33.03 25.7587 32.1863 25.7924 31.7175 26.4337C31.2488 27.0749 31.485 27.8774 31.665 28.5299C31.9388 29.4974 31.9875 29.3512 31.2188 29.9549C30.675 30.3749 30 30.9112 30 31.7249C30 32.5387 30.675 33.0637 31.2188 33.4912C31.9688 34.0949 31.9388 33.9487 31.665 34.9162C31.485 35.5687 31.2563 36.3787 31.7175 37.0162C32.1788 37.6537 33.1537 37.6987 33.75 37.7174V46.1249C33.75 46.2642 33.7888 46.4007 33.862 46.5192C33.9352 46.6377 34.04 46.7334 34.1646 46.7957C34.2892 46.858 34.4286 46.8844 34.5674 46.8719C34.7061 46.8594 34.8386 46.8085 34.95 46.7249L39 43.6874L43.05 46.7249C43.1614 46.8085 43.2939 46.8594 43.4326 46.8719C43.5714 46.8844 43.7108 46.858 43.8354 46.7957C43.96 46.7334 44.0648 46.6377 44.138 46.5192C44.2112 46.4007 44.25 46.2642 44.25 46.1249V37.7174C44.4187 37.7174 45.8137 37.6537 46.2825 37.0162C46.7512 36.3787 46.515 35.5687 46.335 34.9162C46.0612 33.9487 46.0125 34.0949 46.7812 33.4912C47.325 33.0637 48 32.5349 48 31.7249C48 30.9149 47.325 30.3749 46.7812 29.9549ZM39.45 42.1499C39.3202 42.0526 39.1623 41.9999 39 41.9999C38.8377 41.9999 38.6798 42.0526 38.55 42.1499L35.25 44.6249V39.3749C35.3416 39.585 35.4745 39.7745 35.6407 39.9323C35.8068 40.0901 36.003 40.213 36.2175 40.2937C36.9675 40.5299 37.6237 40.0874 38.2087 39.6974C38.4461 39.5089 38.7136 39.3618 39 39.2624C39.2859 39.3595 39.5533 39.5041 39.7913 39.6899C40.242 40.05 40.7829 40.2796 41.355 40.3537C42.0337 40.3537 42.54 39.7724 42.75 39.3674V44.6174L39.45 42.1499ZM44.745 33.5924C44.4712 34.2674 45.3075 35.8424 45.0563 36.1237C44.805 36.4049 43.215 36.1649 42.5475 36.6112C41.88 37.0574 41.6813 38.7149 41.3325 38.8612C40.9838 39.0074 39.795 37.7737 39 37.7774C38.25 37.7774 37.0162 38.9362 36.6787 38.8574C36.4087 38.7487 36.0938 37.0462 35.4525 36.6074C34.8113 36.1687 33.1762 36.4387 32.9437 36.1349C32.79 35.8087 33.51 34.2374 33.255 33.5887C32.9775 32.8762 31.5075 31.9799 31.5075 31.7137C31.5075 31.4474 32.9663 30.5324 33.255 29.8387C33.5438 29.1449 32.7337 27.5549 32.9437 27.3037C33.1537 27.0524 34.86 27.2437 35.4525 26.8199C36.045 26.3962 36.3975 24.6862 36.6675 24.5699C36.9375 24.4537 38.25 25.6837 39 25.6837C39.75 25.6837 41.04 24.5174 41.3213 24.6037C41.6025 24.6899 42.0112 26.3849 42.5475 26.8537C43.0837 27.3224 44.8463 27.0374 45.0563 27.3224C45.2663 27.6074 44.535 29.1487 44.745 29.8724C44.955 30.5962 46.4925 31.3724 46.4925 31.7474C46.4925 32.1224 45.0337 32.8724 44.745 33.5924Z" fill="#348FFF"/>
<path d="M39 27.1089C38.087 27.1089 37.1945 27.3796 36.4354 27.8869C35.6762 28.3941 35.0846 29.1151 34.7352 29.9586C34.3858 30.8021 34.2944 31.7303 34.4725 32.6257C34.6506 33.5212 35.0903 34.3437 35.7359 34.9893C36.3815 35.6349 37.204 36.0746 38.0995 36.2527C38.9949 36.4308 39.9231 36.3394 40.7666 35.99C41.6101 35.6406 42.3311 35.0489 42.8383 34.2898C43.3455 33.5307 43.6163 32.6381 43.6163 31.7251C43.6153 30.5011 43.1286 29.3276 42.2631 28.4621C41.3976 27.5966 40.224 27.1099 39 27.1089ZM39 34.8414C38.3837 34.8414 37.7812 34.6586 37.2687 34.3162C36.7563 33.9738 36.3569 33.4871 36.121 32.9177C35.8851 32.3483 35.8234 31.7217 35.9437 31.1172C36.0639 30.5127 36.3607 29.9574 36.7965 29.5216C37.2323 29.0858 37.7876 28.789 38.3921 28.6688C38.9966 28.5485 39.6232 28.6102 40.1926 28.8461C40.762 29.082 41.2487 29.4814 41.5911 29.9938C41.9335 30.5063 42.1163 31.1088 42.1163 31.7251C42.1153 32.5513 41.7867 33.3434 41.2025 33.9276C40.6183 34.5118 39.8262 34.8404 39 34.8414Z" fill="#348FFF"/>
</g>
<defs>
<clipPath id="clip0_243_13847">
<rect width="48" height="48" fill="white"/>
</clipPath>
</defs>
</svg>
