<svg width="39" height="26" viewBox="0 0 39 26" fill="none" xmlns="http://www.w3.org/2000/svg">
<path d="M14.625 12.25C14.625 12.4489 14.546 12.6397 14.4053 12.7803C14.2647 12.921 14.0739 13 13.875 13H12.375V14.5C12.375 14.6989 12.296 14.8897 12.1553 15.0303C12.0147 15.171 11.8239 15.25 11.625 15.25C11.4261 15.25 11.2353 15.171 11.0947 15.0303C10.954 14.8897 10.875 14.6989 10.875 14.5V13H9.375C9.17609 13 8.98532 12.921 8.84467 12.7803C8.70402 12.6397 8.625 12.4489 8.625 12.25C8.625 12.0511 8.70402 11.8603 8.84467 11.7197C8.98532 11.579 9.17609 11.5 9.375 11.5H10.875V10C10.875 9.80109 10.954 9.61032 11.0947 9.46967C11.2353 9.32902 11.4261 9.25 11.625 9.25C11.8239 9.25 12.0147 9.32902 12.1553 9.46967C12.296 9.61032 12.375 9.80109 12.375 10V11.5H13.875C14.0739 11.5 14.2647 11.579 14.4053 11.7197C14.546 11.8603 14.625 12.0511 14.625 12.25Z" fill="#348FFF"/>
<path d="M11.625 6.25C10.4383 6.25 9.27828 6.60189 8.29158 7.26118C7.30489 7.92047 6.53585 8.85754 6.08173 9.9539C5.6276 11.0503 5.50878 12.2567 5.74029 13.4205C5.9718 14.5844 6.54325 15.6535 7.38236 16.4926C8.22148 17.3318 9.29057 17.9032 10.4545 18.1347C11.6183 18.3662 12.8247 18.2474 13.9211 17.7933C15.0175 17.3392 15.9545 16.5701 16.6138 15.5834C17.2731 14.5967 17.625 13.4367 17.625 12.25C17.6228 10.6594 16.99 9.13452 15.8652 8.00977C14.7405 6.88502 13.2156 6.25218 11.625 6.25ZM11.625 16.75C10.735 16.75 9.86496 16.4861 9.12494 15.9916C8.38491 15.4971 7.80814 14.7943 7.46754 13.9721C7.12695 13.1498 7.03783 12.245 7.21147 11.3721C7.3851 10.4992 7.81368 9.69736 8.44302 9.06802C9.07236 8.43868 9.87418 8.0101 10.7471 7.83647C11.62 7.66283 12.5248 7.75195 13.3471 8.09254C14.1693 8.43314 14.8721 9.00991 15.3666 9.74993C15.8611 10.49 16.125 11.36 16.125 12.25C16.125 13.4435 15.6509 14.5881 14.807 15.432C13.9631 16.2759 12.8185 16.75 11.625 16.75Z" fill="#348FFF"/>
<path d="M36 16.765V11.5C35.992 10.9829 35.8798 10.4727 35.67 10C35.3719 9.33004 34.8859 8.76091 34.2709 8.36156C33.6559 7.96221 32.9383 7.74977 32.205 7.75H30.75V6.49C30.749 5.82992 30.4864 5.19715 30.0196 4.7304C29.5529 4.26365 28.9201 4.00099 28.26 4H27.99C27.3299 4.00099 26.6971 4.26365 26.2304 4.7304C25.7636 5.19715 25.501 5.82992 25.5 6.49V7.75H23.25V4.75C23.2488 4.35254 23.0904 3.9717 22.8093 3.69065C22.5283 3.4096 22.1475 3.25119 21.75 3.25H1.5C1.10254 3.25119 0.721699 3.4096 0.440651 3.69065C0.159604 3.9717 0.00118705 4.35254 0 4.75V21.25C0.00118705 21.6475 0.159604 22.0283 0.440651 22.3093C0.721699 22.5904 1.10254 22.7488 1.5 22.75H3.45C3.62214 23.5977 4.08205 24.3599 4.75181 24.9073C5.42157 25.4547 6.25998 25.7538 7.125 25.7538C7.99002 25.7538 8.82843 25.4547 9.49819 24.9073C10.168 24.3599 10.6279 23.5977 10.8 22.75H24.45C24.6221 23.5977 25.082 24.3599 25.7518 24.9073C26.4216 25.4547 27.26 25.7538 28.125 25.7538C28.99 25.7538 29.8284 25.4547 30.4982 24.9073C31.168 24.3599 31.6279 23.5977 31.8 22.75H35.025C35.2467 22.7514 35.462 22.676 35.6343 22.5365C35.8066 22.397 35.9253 22.2021 35.97 21.985C36.5917 21.935 37.1717 21.6524 37.5943 21.1937C38.0169 20.7349 38.2511 20.1337 38.25 19.51V19.24C38.2488 18.6218 38.0179 18.0262 37.6021 17.5688C37.1862 17.1114 36.6152 16.8249 36 16.765ZM9.24 22.75C9.08643 23.1884 8.80041 23.5683 8.4215 23.837C8.0426 24.1058 7.58954 24.2502 7.125 24.2502C6.66046 24.2502 6.2074 24.1058 5.8285 23.837C5.44959 23.5683 5.16357 23.1884 5.01 22.75C4.83002 22.2662 4.83002 21.7338 5.01 21.25C5.16357 20.8116 5.44959 20.4317 5.8285 20.163C6.2074 19.8942 6.66046 19.7498 7.125 19.7498C7.58954 19.7498 8.0426 19.8942 8.4215 20.163C8.80041 20.4317 9.08643 20.8116 9.24 21.25C9.41998 21.7338 9.41998 22.2662 9.24 22.75ZM21.75 21.25H10.8C10.6279 20.4023 10.168 19.6401 9.49819 19.0927C8.82843 18.5453 7.99002 18.2462 7.125 18.2462C6.25998 18.2462 5.42157 18.5453 4.75181 19.0927C4.08205 19.6401 3.62214 20.4023 3.45 21.25H1.5V4.75H21.75V21.25ZM27 6.49C26.9999 6.35996 27.0254 6.23118 27.0752 6.11103C27.1249 5.99087 27.1978 5.88169 27.2897 5.78974C27.3817 5.69779 27.4909 5.62488 27.611 5.57516C27.7312 5.52544 27.86 5.4999 27.99 5.5H28.26C28.39 5.4999 28.5188 5.52544 28.639 5.57516C28.7591 5.62488 28.8683 5.69779 28.9603 5.78974C29.0522 5.88169 29.1251 5.99087 29.1748 6.11103C29.2246 6.23118 29.2501 6.35996 29.25 6.49V7.75H27V6.49ZM30.24 22.75C30.0864 23.1884 29.8004 23.5683 29.4215 23.837C29.0426 24.1058 28.5895 24.2502 28.125 24.2502C27.6605 24.2502 27.2074 24.1058 26.8285 23.837C26.4496 23.5683 26.1636 23.1884 26.01 22.75C25.83 22.2662 25.83 21.7338 26.01 21.25C26.1636 20.8116 26.4496 20.4317 26.8285 20.163C27.2074 19.8942 27.6605 19.7498 28.125 19.7498C28.5895 19.7498 29.0426 19.8942 29.4215 20.163C29.8004 20.4317 30.0864 20.8116 30.24 21.25C30.42 21.7338 30.42 22.2662 30.24 22.75ZM34.5 21.25H31.8C31.6498 20.5216 31.2839 19.8552 30.75 19.3375C30.6391 19.2202 30.5187 19.1123 30.39 19.015C29.885 18.6319 29.2911 18.3831 28.6638 18.2918C28.0365 18.2005 27.3964 18.2697 26.8031 18.4929C26.2098 18.7161 25.6828 19.0861 25.2713 19.5683C24.8598 20.0504 24.5772 20.629 24.45 21.25H23.25V9.25H32.205C32.5233 9.24852 32.8383 9.31461 33.1292 9.4439C33.4201 9.57319 33.6803 9.76273 33.8925 10H31.545C31.1296 9.99981 30.7223 10.114 30.3675 10.33C30.0418 10.5207 29.7707 10.7918 29.58 11.1175C29.364 11.4723 29.2498 11.8796 29.25 12.295V14.455C29.25 15.0637 29.4918 15.6474 29.9222 16.0778C30.3526 16.5082 30.9363 16.75 31.545 16.75H34.5V21.25ZM34.5 15.25H31.545C31.4404 15.2506 31.3368 15.2304 31.2401 15.1907C31.1433 15.151 31.0555 15.0924 30.9815 15.0185C30.9076 14.9445 30.849 14.8567 30.8093 14.7599C30.7696 14.6632 30.7494 14.5596 30.75 14.455V12.295C30.7494 12.1904 30.7696 12.0868 30.8093 11.9901C30.849 11.8933 30.9076 11.8055 30.9815 11.7315C31.0555 11.6576 31.1433 11.599 31.2401 11.5593C31.3368 11.5196 31.4404 11.4994 31.545 11.5H34.5V15.25ZM36.75 19.51C36.7499 19.7307 36.676 19.9451 36.5401 20.119C36.4043 20.293 36.2141 20.4165 36 20.47V18.28C36.2141 18.3335 36.4043 18.457 36.5401 18.631C36.676 18.8049 36.7499 19.0193 36.75 19.24V19.51Z" fill="#348FFF"/>
<path d="M27.333 2.46914V0.744141C27.333 0.545228 27.412 0.354462 27.5527 0.21381C27.6933 0.0731577 27.8841 -0.00585938 28.083 -0.00585938C28.2819 -0.00585938 28.4727 0.0731577 28.6133 0.21381C28.754 0.354462 28.833 0.545228 28.833 0.744141V2.46914C28.833 2.66805 28.754 2.85882 28.6133 2.99947C28.4727 3.14012 28.2819 3.21914 28.083 3.21914C27.8841 3.21914 27.6933 3.14012 27.5527 2.99947C27.412 2.85882 27.333 2.66805 27.333 2.46914Z" fill="#348FFF"/>
<path d="M30.7889 3.92485C30.7081 3.86838 30.6393 3.79656 30.5864 3.71348C30.5334 3.63041 30.4973 3.53772 30.4802 3.4407C30.463 3.34368 30.4652 3.24423 30.4865 3.14804C30.5078 3.05185 30.5479 2.9608 30.6044 2.8801L31.5929 1.46785C31.6494 1.38713 31.7213 1.31834 31.8044 1.26541C31.8875 1.21247 31.9803 1.17643 32.0773 1.15933C32.1744 1.14223 32.2738 1.14442 32.37 1.16576C32.4662 1.1871 32.5573 1.22719 32.638 1.28372C32.7187 1.34025 32.7875 1.41213 32.8404 1.49525C32.8934 1.57837 32.9294 1.6711 32.9465 1.76815C32.9636 1.8652 32.9614 1.96466 32.9401 2.06087C32.9188 2.15707 32.8787 2.24813 32.8221 2.32885L31.8336 3.74035C31.7772 3.82108 31.7053 3.8899 31.6223 3.94286C31.5392 3.99583 31.4465 4.03191 31.3495 4.04905C31.2525 4.06618 31.153 4.06403 31.0568 4.04272C30.9606 4.02141 30.8696 3.98136 30.7889 3.92485Z" fill="#348FFF"/>
<path d="M23.4278 2.32738C23.3712 2.24667 23.3311 2.15561 23.3098 2.0594C23.2885 1.9632 23.2863 1.86373 23.3034 1.76668C23.3205 1.66964 23.3565 1.5769 23.4095 1.49379C23.4624 1.41067 23.5312 1.33879 23.6119 1.28225C23.6926 1.22572 23.7837 1.18564 23.8799 1.1643C23.9761 1.14295 24.0755 1.14077 24.1726 1.15787C24.2696 1.17496 24.3624 1.21101 24.4455 1.26394C24.5286 1.31688 24.6005 1.38567 24.657 1.46638L25.6455 2.87863C25.702 2.95934 25.742 3.05039 25.7633 3.14658C25.7846 3.24276 25.7868 3.3422 25.7696 3.43922C25.7525 3.53623 25.7164 3.62892 25.6635 3.71199C25.6105 3.79506 25.5417 3.8669 25.461 3.92338C25.3803 3.97987 25.2892 4.0199 25.1931 4.0412C25.0969 4.06249 24.9974 4.06464 24.9004 4.0475C24.8034 4.03037 24.7107 3.9943 24.6276 3.94134C24.5446 3.88839 24.4727 3.81959 24.4163 3.73888L23.4278 2.32738Z" fill="#348FFF"/>
</svg>
