<svg width="44" height="45" viewBox="0 0 44 45" fill="none" xmlns="http://www.w3.org/2000/svg">
<path d="M41.9375 33.7878H39.2769C39.3211 33.6751 39.3511 33.5574 39.3662 33.4372L40.975 23.8122C41.0239 23.5169 41.0079 23.2144 40.9282 22.9259C40.8484 22.6373 40.7068 22.3696 40.5131 22.1413C40.3195 21.913 40.0785 21.7295 39.8068 21.6037C39.5352 21.478 39.2394 21.4128 38.94 21.4128H27.8713C27.2207 21.4117 26.5909 21.6422 26.0946 22.0629C25.5983 22.4836 25.2679 23.0671 25.1625 23.7091L23.9387 31.0378H23.375V28.0128C23.3715 27.0008 23.1196 26.0051 22.6413 25.1133C22.163 24.2214 21.473 23.4606 20.6319 22.8978C21.2108 22.5654 21.6997 22.0965 22.0559 21.532C22.4122 20.9674 22.625 20.3243 22.6758 19.6586C22.7267 18.993 22.614 18.325 22.3476 17.7129C22.0812 17.1008 21.6692 16.5631 21.1475 16.1466C21.2539 15.851 21.3096 15.5395 21.3125 15.2253C21.312 14.616 21.1092 14.0241 20.7359 13.5426C20.3626 13.061 19.84 12.717 19.25 12.5647V10.4128C19.25 8.77181 18.5981 7.198 17.4377 6.03762C16.2773 4.87724 14.7035 4.22534 13.0625 4.22534C11.4215 4.22534 9.84766 4.87724 8.68728 6.03762C7.5269 7.198 6.875 8.77181 6.875 10.4128V12.5647C6.28504 12.717 5.76237 13.061 5.38906 13.5426C5.01576 14.0241 4.81295 14.616 4.8125 15.2253C4.81596 15.5417 4.87171 15.8553 4.9775 16.1535C4.45588 16.5693 4.04393 17.1064 3.77757 17.718C3.51122 18.3296 3.39855 18.9971 3.4494 19.6622C3.50025 20.3273 3.71308 20.9699 4.06931 21.5339C4.42554 22.0979 4.91436 22.5662 5.49312 22.8978C4.65203 23.4606 3.96202 24.2214 3.48372 25.1133C3.00542 26.0051 2.75347 27.0008 2.75 28.0128V31.7253C2.75209 32.4721 3.00105 33.1973 3.45813 33.7878H2.0625C1.88016 33.7878 1.7053 33.8603 1.57636 33.9892C1.44743 34.1181 1.375 34.293 1.375 34.4753V37.2253C1.375 37.4077 1.44743 37.5825 1.57636 37.7115C1.7053 37.8404 1.88016 37.9128 2.0625 37.9128H3.4375V42.0378C3.4375 42.2202 3.50993 42.395 3.63886 42.524C3.7678 42.6529 3.94266 42.7253 4.125 42.7253H39.875C40.0573 42.7253 40.2322 42.6529 40.3611 42.524C40.4901 42.395 40.5625 42.2202 40.5625 42.0378V37.9128H41.9375C42.1198 37.9128 42.2947 37.8404 42.4236 37.7115C42.5526 37.5825 42.625 37.4077 42.625 37.2253V34.4753C42.625 34.293 42.5526 34.1181 42.4236 33.9892C42.2947 33.8603 42.1198 33.7878 41.9375 33.7878ZM38.94 22.7878C39.0398 22.7876 39.1384 22.809 39.229 22.8506C39.3197 22.8923 39.4002 22.9532 39.4649 23.029C39.5297 23.1049 39.5772 23.194 39.604 23.29C39.6309 23.3861 39.6366 23.4869 39.6206 23.5853L38.0119 33.2103C37.9873 33.3713 37.9058 33.5182 37.7822 33.6242C37.6586 33.7301 37.501 33.7882 37.3381 33.7878H27.6238L29.4594 22.7878H38.94ZM26.5169 23.936C26.5691 23.6147 26.7341 23.3226 26.9824 23.1122C27.2306 22.9017 27.5458 22.7867 27.8713 22.7878H28.0637L26.2281 33.7878H24.8738L26.5169 23.936ZM23.7119 32.4128L23.4781 33.7878H18.5625C18.3802 33.7878 18.2053 33.7154 18.0764 33.5865C17.9474 33.4575 17.875 33.2827 17.875 33.1003V32.4128H23.7119ZM18.5625 13.8503C18.9268 13.8514 19.2759 13.9966 19.5336 14.2543C19.7912 14.5119 19.9364 14.861 19.9375 15.2253C19.9333 15.3042 19.9218 15.3824 19.9031 15.4591C19.7345 15.3983 19.5623 15.3478 19.3875 15.3078L19.1125 16.6553C19.7497 16.7842 20.3204 17.1351 20.723 17.6455C21.1256 18.1559 21.3339 18.7926 21.3108 19.4423C21.2877 20.092 21.0347 20.7123 20.5968 21.1928C20.159 21.6733 19.5647 21.9827 18.92 22.066L15.8125 20.9316V19.2953C16.6475 18.8128 17.3411 18.1193 17.8238 17.2844C18.3064 16.4494 18.5612 15.5023 18.5625 14.5378V13.8503ZM13.0625 22.7878C12.2603 22.7979 11.4684 22.6064 10.7594 22.231L11.2338 22.0591C11.3671 22.0117 11.4824 21.9241 11.5637 21.8083C11.645 21.6925 11.6882 21.5543 11.6875 21.4128V19.8591C12.5887 20.0974 13.5363 20.0974 14.4375 19.8591V21.4128C14.4368 21.5543 14.48 21.6925 14.5613 21.8083C14.6426 21.9241 14.7579 22.0117 14.8912 22.0591L15.3656 22.231C14.6566 22.6064 13.8647 22.7979 13.0625 22.7878ZM14.9944 23.8741L13.0625 26.4522L11.1306 23.8741C12.3898 24.2591 13.7352 24.2591 14.9944 23.8741ZM13.0625 18.6628C12.2103 18.6619 11.3793 18.397 10.6837 17.9045C9.98816 17.4121 9.4622 16.7163 9.17813 15.9128H16.9469C16.6628 16.7163 16.1368 17.4121 15.4413 17.9045C14.7457 18.397 13.9147 18.6619 13.0625 18.6628ZM8.9375 14.5378V11.1003C9.98593 11.078 11.0165 10.8245 11.9556 10.3578C12.7269 9.96866 13.574 9.75279 14.4375 9.72534C14.7352 9.70318 15.0344 9.74039 15.3177 9.83481C15.6009 9.92923 15.8626 10.079 16.0875 10.2753C16.4161 10.543 16.7882 10.7522 17.1875 10.8941V14.5378H8.9375ZM13.0625 5.60034C14.2052 5.60221 15.31 6.01064 16.1791 6.75255C17.0483 7.49447 17.625 8.52145 17.8062 9.64972C17.4777 9.55776 17.1728 9.39595 16.9125 9.17534C16.22 8.60001 15.3367 8.30559 14.4375 8.35034C13.3891 8.37268 12.3585 8.62622 11.4194 9.09284C10.6481 9.48202 9.801 9.69789 8.9375 9.72534C8.72771 9.72626 8.51829 9.70785 8.31188 9.67034C8.48883 8.53713 9.06469 7.50438 9.93569 6.75817C10.8067 6.01196 11.9156 5.60136 13.0625 5.60034ZM4.8125 19.3503C4.81371 18.7178 5.03226 18.1049 5.43152 17.6142C5.83078 17.1236 6.38651 16.7851 7.00562 16.6553L6.73063 15.3078C6.55786 15.3468 6.38789 15.3974 6.22188 15.4591C6.20322 15.3824 6.19171 15.3042 6.1875 15.2253C6.18859 14.861 6.3338 14.5119 6.59143 14.2543C6.84906 13.9966 7.19816 13.8514 7.5625 13.8503V14.5378C7.56384 15.5023 7.81859 16.4494 8.30123 17.2844C8.78387 18.1193 9.47746 18.8128 10.3125 19.2953V20.9316L7.205 22.066C6.54553 21.9785 5.94 21.6553 5.50023 21.1562C5.06047 20.657 4.81619 20.0156 4.8125 19.3503ZM4.125 28.0128C4.12513 27.0255 4.42945 26.0622 4.99655 25.254C5.56365 24.4458 6.36598 23.8319 7.29437 23.496L8.73812 22.9735L12.5125 28.0128C12.5765 28.0982 12.6596 28.1675 12.755 28.2153C12.8505 28.263 12.9558 28.2878 13.0625 28.2878C13.1692 28.2878 13.2745 28.263 13.37 28.2153C13.4654 28.1675 13.5485 28.0982 13.6125 28.0128L17.3869 22.9735L18.8306 23.496C19.759 23.8319 20.5614 24.4458 21.1285 25.254C21.6955 26.0622 21.9999 27.0255 22 28.0128V31.0378H19.25V27.6003H17.875V31.0378H17.1875C17.0052 31.0378 16.8303 31.1103 16.7014 31.2392C16.5724 31.3681 16.5 31.543 16.5 31.7253V33.1003C16.5019 33.3349 16.5437 33.5674 16.6238 33.7878H13.6812C13.5207 33.0124 13.0983 32.3158 12.4849 31.8151C11.8714 31.3143 11.1044 31.0399 10.3125 31.0378H8.25V27.6003H6.875V31.7253C6.875 31.9077 6.94743 32.0825 7.07636 32.2115C7.2053 32.3404 7.38016 32.4128 7.5625 32.4128H8.9375V33.7878H6.1875C5.64099 33.7862 5.11734 33.5684 4.7309 33.1819C4.34445 32.7955 4.12663 32.2718 4.125 31.7253V28.0128ZM12.2581 33.7878H10.3125V32.4128C10.7389 32.414 11.1545 32.5467 11.5027 32.7928C11.8509 33.0388 12.1147 33.3863 12.2581 33.7878ZM39.1875 41.3503H4.8125V37.9128H39.1875V41.3503ZM41.25 36.5378H2.75V35.1628H41.25V36.5378Z" fill="#2B6BDC"/>
<path d="M33.6875 30.3503C34.0954 30.3503 34.4942 30.2294 34.8334 30.0028C35.1725 29.7761 35.4369 29.454 35.593 29.0771C35.7491 28.7003 35.79 28.2856 35.7104 27.8855C35.6308 27.4854 35.4344 27.1179 35.1459 26.8294C34.8575 26.541 34.49 26.3446 34.0899 26.265C33.6898 26.1854 33.2751 26.2262 32.8982 26.3823C32.5213 26.5384 32.1992 26.8028 31.9726 27.142C31.746 27.4812 31.625 27.8799 31.625 28.2878C31.625 28.8349 31.8423 29.3595 32.2291 29.7463C32.6159 30.133 33.1405 30.3503 33.6875 30.3503ZM33.6875 27.6003C33.8235 27.6003 33.9564 27.6407 34.0695 27.7162C34.1825 27.7918 34.2706 27.8991 34.3227 28.0248C34.3747 28.1504 34.3883 28.2886 34.3618 28.422C34.3353 28.5553 34.2698 28.6778 34.1736 28.774C34.0775 28.8701 33.955 28.9356 33.8216 28.9621C33.6883 28.9887 33.55 28.975 33.4244 28.923C33.2988 28.871 33.1914 28.7829 33.1159 28.6698C33.0403 28.5567 33 28.4238 33 28.2878C33 28.1055 33.0724 27.9306 33.2014 27.8017C33.3303 27.6728 33.5052 27.6003 33.6875 27.6003Z" fill="#2B6BDC"/>
<path d="M26.1602 15.0081C26.1258 15.1114 26.1164 15.2215 26.1329 15.3292C26.1493 15.4369 26.1911 15.5391 26.2549 15.6275C26.3186 15.7158 26.4024 15.7878 26.4994 15.8374C26.5963 15.887 26.7037 15.9129 26.8127 15.9128C26.8865 15.9127 26.9598 15.9009 27.0299 15.8778L30.4564 14.7352C31.2652 15.0597 32.1287 15.2261 33.0002 15.2253C34.5256 15.227 36.0084 14.7219 37.2156 13.7893C38.4228 12.8567 39.2859 11.5495 39.6694 10.073C40.0529 8.59653 39.935 7.0345 39.3342 5.63231C38.7335 4.23013 37.6839 3.06726 36.3504 2.3264C35.017 1.58555 33.4752 1.30869 31.9672 1.53934C30.4593 1.76999 29.0707 2.49506 28.0197 3.60064C26.9686 4.70622 26.3147 6.12966 26.1605 7.64731C26.0064 9.16496 26.3608 10.6908 27.1681 11.9852L26.1602 15.0081ZM33.0002 2.85034C33.8199 2.84939 34.6295 3.03171 35.3698 3.38395C36.11 3.73619 36.7621 4.24944 37.2784 4.88616C37.7948 5.52289 38.1622 6.26697 38.3539 7.064C38.5457 7.86102 38.5568 8.69083 38.3865 9.49271C38.2163 10.2946 37.8689 11.0483 37.3698 11.6986C36.8708 12.349 36.2327 12.8795 35.5022 13.2515C34.7717 13.6235 33.9672 13.8275 33.1478 13.8485C32.3283 13.8696 31.5144 13.7072 30.7658 13.3732C30.6092 13.3023 30.4316 13.2935 30.2687 13.3485L27.8996 14.1384L28.5782 12.1027C28.612 12.0011 28.6215 11.893 28.6061 11.787C28.5907 11.681 28.5508 11.58 28.4895 11.4922C27.9141 10.6681 27.5758 9.70188 27.5113 8.69882C27.4468 7.69576 27.6586 6.69423 28.1237 5.80317C28.5888 4.91212 29.2894 4.16567 30.1491 3.64504C31.0089 3.12442 31.995 2.84955 33.0002 2.85034Z" fill="#2B6BDC"/>
<path d="M32.3125 10.4128H33.6875V9.03784H35.0625V7.66284H33.6875V6.28784H32.3125V7.66284H30.9375V9.03784H32.3125V10.4128Z" fill="#2B6BDC"/>
<path d="M11.6875 11.7878H10.3125V13.1628H11.6875V11.7878Z" fill="#2B6BDC"/>
<path d="M15.8125 11.7878H14.4375V13.1628H15.8125V11.7878Z" fill="#2B6BDC"/>
</svg>
