<svg width="38" height="40" viewBox="0 0 38 40" fill="none" xmlns="http://www.w3.org/2000/svg">
<path d="M31.875 9.2975H30.2025V7.625C30.2269 7.35399 30.1439 7.08425 29.9713 6.87384C29.7988 6.66343 29.5505 6.52918 29.28 6.5H26.22C25.9495 6.52918 25.7012 6.66343 25.5287 6.87384C25.3561 7.08425 25.2731 7.35399 25.2975 7.625V9.2975H23.625C23.3552 9.27301 23.0864 9.35501 22.8762 9.52597C22.666 9.69694 22.531 9.94333 22.5 10.2125V13.28C22.5305 13.55 22.6651 13.7974 22.8752 13.9697C23.0853 14.142 23.3543 14.2255 23.625 14.2025H25.2975V15.875C25.2731 16.146 25.3561 16.4158 25.5287 16.6262C25.7012 16.8366 25.9495 16.9708 26.22 17H29.28C29.5505 16.9708 29.7988 16.8366 29.9713 16.6262C30.1439 16.4158 30.2269 16.146 30.2025 15.875V14.2025H31.875C32.1457 14.2255 32.4147 14.142 32.6248 13.9697C32.8349 13.7974 32.9695 13.55 33 13.28V10.2125C32.969 9.94333 32.834 9.69694 32.6238 9.52597C32.4136 9.35501 32.1448 9.27301 31.875 9.2975ZM31.5 12.9725H28.9725V15.5H26.5275V12.9725H24V10.5275H26.5275V8H28.9725V10.5275H31.5V12.9725Z" fill="#348FFF"/>
<path d="M10.5 7.625C9.98082 7.625 9.47331 7.77895 9.04163 8.06739C8.60995 8.35583 8.2735 8.7658 8.07482 9.24546C7.87614 9.72511 7.82415 10.2529 7.92544 10.7621C8.02673 11.2713 8.27673 11.739 8.64385 12.1062C9.01096 12.4733 9.47869 12.7233 9.98789 12.8246C10.4971 12.9259 11.0249 12.8739 11.5045 12.6752C11.9842 12.4765 12.3942 12.1401 12.6826 11.7084C12.971 11.2767 13.125 10.7692 13.125 10.25C13.125 9.55381 12.8484 8.88613 12.3562 8.39385C11.8639 7.90156 11.1962 7.625 10.5 7.625ZM10.5 11.375C10.2775 11.375 10.06 11.309 9.87498 11.1854C9.68998 11.0618 9.54579 10.8861 9.46064 10.6805C9.37549 10.475 9.35321 10.2488 9.39662 10.0305C9.44003 9.8123 9.54717 9.61184 9.70451 9.45451C9.86184 9.29717 10.0623 9.19003 10.2805 9.14662C10.4988 9.10321 10.725 9.12549 10.9305 9.21064C11.1361 9.29579 11.3118 9.43998 11.4354 9.62499C11.559 9.80999 11.625 10.0275 11.625 10.25C11.625 10.5484 11.5065 10.8345 11.2955 11.0455C11.0845 11.2565 10.7984 11.375 10.5 11.375Z" fill="#348FFF"/>
<path d="M6 22.25C6 22.0511 6.07902 21.8603 6.21967 21.7197C6.36032 21.579 6.55109 21.5 6.75 21.5H14.25C14.4489 21.5 14.6397 21.579 14.7803 21.7197C14.921 21.8603 15 22.0511 15 22.25C15 22.4489 14.921 22.6397 14.7803 22.7803C14.6397 22.921 14.4489 23 14.25 23H6.75C6.55109 23 6.36032 22.921 6.21967 22.7803C6.07902 22.6397 6 22.4489 6 22.25Z" fill="#348FFF"/>
<path d="M10.5001 13.625C9.34336 13.6237 8.23053 14.0678 7.3926 14.8652C6.55467 15.6626 6.05599 16.7521 6.00009 17.9075C5.99406 18.033 6.01371 18.1584 6.05783 18.276C6.10194 18.3936 6.1696 18.501 6.25667 18.5916C6.34373 18.6822 6.44836 18.754 6.56415 18.8028C6.67994 18.8515 6.80446 18.8761 6.93009 18.875H14.0701C14.1957 18.8761 14.3202 18.8515 14.436 18.8028C14.5518 18.754 14.6564 18.6822 14.7435 18.5916C14.8306 18.501 14.8982 18.3936 14.9424 18.276C14.9865 18.1584 15.0061 18.033 15.0001 17.9075C14.9442 16.7521 14.4455 15.6626 13.6076 14.8652C12.7696 14.0678 11.6568 13.6237 10.5001 13.625ZM7.59009 17.375C7.7576 16.7307 8.13421 16.1602 8.66084 15.753C9.18748 15.3458 9.83437 15.1249 10.5001 15.1249C11.1658 15.1249 11.8127 15.3458 12.3393 15.753C12.866 16.1602 13.2426 16.7307 13.4101 17.375H7.59009Z" fill="#348FFF"/>
<path d="M25.5 33.5C25.5 33.6989 25.421 33.8897 25.2803 34.0303C25.1397 34.171 24.9489 34.25 24.75 34.25H6.75C6.55109 34.25 6.36032 34.171 6.21967 34.0303C6.07902 33.8897 6 33.6989 6 33.5C6 33.3011 6.07902 33.1103 6.21967 32.9697C6.36032 32.829 6.55109 32.75 6.75 32.75H24.75C24.9489 32.75 25.1397 32.829 25.2803 32.9697C25.421 33.1103 25.5 33.3011 25.5 33.5Z" fill="#348FFF"/>
<path d="M25.5 29.75C25.5 29.9489 25.421 30.1397 25.2803 30.2803C25.1397 30.421 24.9489 30.5 24.75 30.5H6.75C6.55109 30.5 6.36032 30.421 6.21967 30.2803C6.07902 30.1397 6 29.9489 6 29.75C6 29.5511 6.07902 29.3603 6.21967 29.2197C6.36032 29.079 6.55109 29 6.75 29H24.75C24.9489 29 25.1397 29.079 25.2803 29.2197C25.421 29.3603 25.5 29.5511 25.5 29.75Z" fill="#348FFF"/>
<path d="M25.5 26C25.5 26.1989 25.421 26.3897 25.2803 26.5303C25.1397 26.671 24.9489 26.75 24.75 26.75H6.75C6.55109 26.75 6.36032 26.671 6.21967 26.5303C6.07902 26.3897 6 26.1989 6 26C6 25.8011 6.07902 25.6103 6.21967 25.4697C6.36032 25.329 6.55109 25.25 6.75 25.25H24.75C24.9489 25.25 25.1397 25.329 25.2803 25.4697C25.421 25.6103 25.5 25.8011 25.5 26Z" fill="#348FFF"/>
<path d="M37.4625 5.07501C37.4498 4.84935 37.3603 4.63482 37.2088 4.46703C37.0574 4.29923 36.8532 4.18826 36.63 4.15251L36.315 4.10001C35.0201 3.92983 33.7507 3.60242 32.535 3.12501C31.0424 2.47138 29.6284 1.65118 28.32 0.680013C28.1529 0.562244 27.9532 0.499653 27.7488 0.500998C27.5444 0.502343 27.3455 0.567556 27.18 0.687513C26.5725 1.11501 25.905 1.57251 25.1775 2.00001H3C2.40381 2.00179 1.83255 2.23942 1.41098 2.66099C0.989405 3.08256 0.751781 3.65382 0.75 4.25001V37.25C0.751781 37.8462 0.989405 38.4175 1.41098 38.839C1.83255 39.2606 2.40381 39.4982 3 39.5H28.5C29.0962 39.4982 29.6675 39.2606 30.089 38.839C30.5106 38.4175 30.7482 37.8462 30.75 37.25V21.02C32.8747 19.2031 34.5791 16.9459 35.745 14.405C36.9058 11.8441 37.5042 9.06419 37.5 6.25251C37.5 5.83251 37.485 5.43501 37.4625 5.07501ZM29.25 37.25C29.25 37.4489 29.171 37.6397 29.0303 37.7803C28.8897 37.921 28.6989 38 28.5 38H3C2.80109 38 2.61032 37.921 2.46967 37.7803C2.32902 37.6397 2.25 37.4489 2.25 37.25V4.25001C2.25 4.0511 2.32902 3.86033 2.46967 3.71968C2.61032 3.57903 2.80109 3.50001 3 3.50001H21.9225C21.026 3.76702 20.111 3.96756 19.185 4.10001L18.87 4.15251C18.6593 4.18561 18.4651 4.28608 18.3164 4.43887C18.1676 4.59167 18.0724 4.78855 18.045 5.00001C18.045 5.02251 18.0375 5.05251 18.0375 5.07501C17.8428 8.2784 18.4323 11.4809 19.755 14.405C21.3706 17.889 23.9697 20.8245 27.2325 22.85C27.3878 22.947 27.5669 22.999 27.75 23C27.9353 22.998 28.1166 22.9462 28.275 22.85C28.5675 22.67 28.89 22.4525 29.25 22.1975V37.25ZM34.38 13.7825C33.1991 16.3301 31.443 18.5688 29.25 20.3225C28.7708 20.7129 28.2701 21.076 27.75 21.41C24.8657 19.5427 22.5675 16.8987 21.12 13.7825C19.9525 11.2048 19.4029 8.39008 19.515 5.56251C20.4014 5.43302 21.2783 5.24511 22.14 5.00001C22.6139 4.86409 23.0796 4.70132 23.535 4.51251C24.239 4.22039 24.923 3.88216 25.5825 3.50001C26.37 3.05001 27.09 2.57001 27.75 2.11251C29.062 3.06578 30.4756 3.87069 31.965 4.51251C33.2574 5.02456 34.6073 5.37716 35.985 5.56251C36.0971 8.39008 35.5475 11.2048 34.38 13.7825Z" fill="#348FFF"/>
</svg>
