<svg width="49" height="48" viewBox="0 0 49 48" fill="none" xmlns="http://www.w3.org/2000/svg">
<g clip-path="url(#clip0_239_13551)">
<path d="M46.9951 28.181L39.7501 23.9998L46.9951 19.8186C47.6018 19.4665 48.0442 18.8884 48.2255 18.2109C48.4069 17.5333 48.3123 16.8115 47.9626 16.2036L43.1251 7.79605C42.9533 7.49358 42.7231 7.22826 42.4479 7.01552C42.1727 6.80279 41.8579 6.64688 41.5219 6.55686C41.1859 6.46684 40.8353 6.4445 40.4906 6.49114C40.1459 6.53778 39.8139 6.65248 39.5139 6.82855L32.2501 11.0098V2.64355C32.2452 1.94888 31.9671 1.28405 31.4759 0.792825C30.9846 0.301602 30.3198 0.0234642 29.6251 0.0185547H19.8939C19.196 0.0235045 18.5283 0.304225 18.0366 0.799489C17.5448 1.29475 17.2689 1.96437 17.2689 2.6623V11.0098L10.0051 6.82855C9.70512 6.65248 9.37311 6.53778 9.02839 6.49114C8.68367 6.4445 8.33312 6.46684 7.99711 6.55686C7.6611 6.64688 7.34633 6.80279 7.0711 7.01552C6.79587 7.22826 6.56567 7.49358 6.39387 7.79605L1.53762 16.2036C1.18792 16.8115 1.09338 17.5333 1.27471 18.2109C1.45605 18.8884 1.89848 19.4665 2.50512 19.8186L9.75012 23.9998L2.50512 28.181C1.89848 28.5331 1.45605 29.1112 1.27471 29.7887C1.09338 30.4663 1.18792 31.1881 1.53762 31.796L6.41262 40.2035C6.58442 40.506 6.81462 40.7713 7.08985 40.9841C7.36508 41.1968 7.67985 41.3527 8.01586 41.4427C8.35187 41.5328 8.70242 41.5551 9.04714 41.5085C9.39186 41.4618 9.72387 41.3471 10.0239 41.171L17.2501 36.9898V45.3748C17.255 46.0695 17.5332 46.7343 18.0244 47.2255C18.5156 47.7167 19.1804 47.9949 19.8751 47.9998H29.6251C30.3198 47.9949 30.9846 47.7167 31.4759 47.2255C31.9671 46.7343 32.2452 46.0695 32.2501 45.3748V36.9898L39.4951 41.171C39.7951 41.3471 40.1271 41.4618 40.4719 41.5085C40.8166 41.5551 41.1671 41.5328 41.5031 41.4427C41.8392 41.3527 42.1539 41.1968 42.4292 40.9841C42.7044 40.7713 42.9346 40.506 43.1064 40.2035L47.9814 31.796C48.3311 31.1881 48.4256 30.4663 48.2443 29.7887C48.063 29.1112 47.6205 28.5331 47.0139 28.181H46.9951ZM46.6614 31.046L41.8089 39.4535C41.6567 39.7161 41.4068 39.9077 41.1137 39.9864C40.8207 40.0651 40.5083 40.0245 40.2451 39.8735L31.8751 35.0398C31.7609 34.9738 31.6313 34.9392 31.4994 34.9393C31.3675 34.9394 31.2379 34.9744 31.1238 35.0405C31.0097 35.1067 30.9151 35.2018 30.8495 35.3162C30.7839 35.4307 30.7496 35.5604 30.7501 35.6923V45.3748C30.7444 45.6714 30.624 45.9542 30.4142 46.1639C30.2045 46.3737 29.9217 46.494 29.6251 46.4998H19.8939C19.5973 46.494 19.3145 46.3737 19.1048 46.1639C18.895 45.9542 18.7746 45.6714 18.7689 45.3748V35.6923C18.7694 35.5604 18.7351 35.4307 18.6695 35.3162C18.6039 35.2018 18.5093 35.1067 18.3952 35.0405C18.2811 34.9744 18.1515 34.9394 18.0196 34.9393C17.8877 34.9392 17.7581 34.9738 17.6439 35.0398L9.25513 39.8735C8.9919 40.0245 8.6796 40.0651 8.38654 39.9864C8.09348 39.9077 7.84353 39.7161 7.69137 39.4535L2.83887 31.046C2.76091 30.9167 2.70979 30.773 2.68854 30.6235C2.66729 30.474 2.67636 30.3218 2.71521 30.1759C2.75405 30.0299 2.82187 29.8933 2.91463 29.7742C3.00739 29.655 3.12319 29.5558 3.25512 29.4823L11.6251 24.6486C11.7388 24.5826 11.8331 24.488 11.8987 24.3741C11.9643 24.2603 11.9988 24.1312 11.9988 23.9998C11.9988 23.8684 11.9643 23.7393 11.8987 23.6255C11.8331 23.5116 11.7388 23.417 11.6251 23.3511L3.25512 18.5173C3.12319 18.4439 3.00739 18.3446 2.91463 18.2254C2.82187 18.1063 2.75405 17.9697 2.71521 17.8237C2.67636 17.6778 2.66729 17.5256 2.68854 17.3761C2.70979 17.2266 2.76091 17.0829 2.83887 16.9536L7.69137 8.54605C7.84353 8.28351 8.09348 8.09193 8.38654 8.01322C8.6796 7.9345 8.9919 7.97508 9.25513 8.12605L17.6251 12.9598C17.7394 13.0258 17.869 13.0604 18.0009 13.0603C18.1328 13.0602 18.2623 13.0252 18.3764 12.9591C18.4905 12.8929 18.5852 12.7978 18.6508 12.6833C18.7164 12.5689 18.7507 12.4392 18.7501 12.3073V2.64355C18.7559 2.34699 18.8763 2.06418 19.086 1.85443C19.2957 1.64469 19.5786 1.52431 19.8751 1.51855H29.6251C29.9249 1.52443 30.2105 1.64741 30.4207 1.86116C30.631 2.07492 30.7492 2.36248 30.7501 2.6623V12.3073C30.7496 12.4392 30.7839 12.5689 30.8495 12.6833C30.9151 12.7978 31.0097 12.8929 31.1238 12.9591C31.2379 13.0252 31.3675 13.0602 31.4994 13.0603C31.6313 13.0604 31.7609 13.0258 31.8751 12.9598L40.2451 8.12605C40.5083 7.97508 40.8207 7.9345 41.1137 8.01322C41.4068 8.09193 41.6567 8.28351 41.8089 8.54605L46.6614 16.9536C46.7393 17.0829 46.7905 17.2266 46.8117 17.3761C46.833 17.5256 46.8239 17.6778 46.785 17.8237C46.7462 17.9697 46.6784 18.1063 46.5856 18.2254C46.4929 18.3446 46.3771 18.4439 46.2451 18.5173L37.8751 23.3511C37.7615 23.417 37.6671 23.5116 37.6016 23.6255C37.536 23.7393 37.5015 23.8684 37.5015 23.9998C37.5015 24.1312 37.536 24.2603 37.6016 24.3741C37.6671 24.488 37.7615 24.5826 37.8751 24.6486L46.2451 29.4823C46.3771 29.5558 46.4929 29.655 46.5856 29.7742C46.6784 29.8933 46.7462 30.0299 46.785 30.1759C46.8239 30.3218 46.833 30.474 46.8117 30.6235C46.7905 30.773 46.7393 30.9167 46.6614 31.046Z" fill="#348FFF"/>
<path d="M32.5012 16.0124C31.1025 15.5174 27.885 14.9174 25.5 14.7412V12.6562C26.2203 12.4733 26.849 12.0337 27.268 11.42C27.6869 10.8062 27.8673 10.0606 27.7752 9.32318C27.6831 8.58578 27.3248 7.90742 26.7677 7.41559C26.2107 6.92376 25.4931 6.65234 24.75 6.65234C24.0069 6.65234 23.2893 6.92376 22.7322 7.41559C22.1751 7.90742 21.8169 8.58578 21.7247 9.32318C21.6326 10.0606 21.813 10.8062 22.232 11.42C22.651 12.0337 23.2797 12.4733 24 12.6562V14.7149C21.33 14.7374 18.7912 15.1612 17.2987 16.1774C16.8643 16.438 16.5037 16.8052 16.251 17.2443C15.9984 17.6833 15.862 18.1796 15.855 18.6862C15.855 21.2662 19.7775 21.7874 24 22.2937V25.9612C21.7725 26.5162 19.98 27.2174 19.98 28.7362C19.98 30.5437 22.08 31.1774 24 31.7099V34.9837C23.6623 35.0345 23.3214 35.0609 22.98 35.0624C22.7811 35.0624 22.5903 35.1414 22.4497 35.2821C22.309 35.4227 22.23 35.6135 22.23 35.8124C22.23 36.0113 22.309 36.2021 22.4497 36.3427C22.5903 36.4834 22.7811 36.5624 22.98 36.5624C23.3211 36.5616 23.6618 36.5391 24 36.4949V41.2499C24 41.4488 24.079 41.6396 24.2196 41.7802C24.3603 41.9209 24.5511 41.9999 24.75 41.9999C24.9489 41.9999 25.1397 41.9209 25.2803 41.7802C25.421 41.6396 25.5 41.4488 25.5 41.2499V36.1837C27.24 35.6774 28.77 34.6837 28.77 33.3412C28.77 31.7662 27.18 31.0912 25.5 30.5774V27.1462C27.855 26.6249 31.77 25.8524 31.77 23.8499C31.77 21.9112 28.965 21.3974 25.5 20.9662V16.2374C26.5045 16.285 27.5059 16.3851 28.5 16.5374C28.4199 16.8116 28.407 17.101 28.4625 17.3812C28.7175 18.6749 30.3037 19.4774 30.84 19.6574C32.5125 20.2162 33.735 19.5487 34.0762 18.6037C34.3875 17.7712 34.0387 16.5562 32.5012 16.0124ZM23.2012 9.7049C23.2005 9.39843 23.2907 9.09863 23.4604 8.84345C23.6301 8.58826 23.8718 8.38917 24.1547 8.27137C24.4376 8.15358 24.7491 8.12237 25.0498 8.18171C25.3505 8.24104 25.6268 8.38825 25.8438 8.6047C26.0608 8.82114 26.2086 9.0971 26.2687 9.39763C26.3288 9.69816 26.2983 10.0097 26.1812 10.293C26.0641 10.5762 25.8656 10.8183 25.6108 10.9886C25.356 11.159 25.0565 11.2499 24.75 11.2499C24.3402 11.2489 23.9474 11.0859 23.6573 10.7965C23.3671 10.5071 23.2032 10.1147 23.2012 9.7049ZM17.355 18.7049C17.355 18.3937 17.4375 17.9212 18.1462 17.4374C19.32 16.6124 21.5625 16.2374 24 16.2112V20.7824C21.2025 20.4449 17.355 19.9237 17.355 18.6862V18.7049ZM27.27 33.3412C27.27 33.7162 26.52 34.2374 25.5 34.6087V32.1487C26.4562 32.4637 27.27 32.8424 27.27 33.3412ZM24 30.1537C22.7625 29.7787 21.48 29.3587 21.48 28.7362C21.48 28.2937 22.7025 27.8587 24 27.5137V30.1537ZM30.27 23.8499C30.27 24.5324 27.1312 25.2412 25.5 25.6087V22.4774C27.615 22.7512 30.27 23.1899 30.27 23.8499ZM32.6775 18.0937C32.61 18.2774 32.145 18.5062 31.3275 18.2362C31.2187 18.1987 29.5875 17.4862 30.015 16.8299C30.675 16.9744 31.3231 17.1687 31.9537 17.4112C32.5387 17.6249 32.73 17.9474 32.6775 18.0937Z" fill="#348FFF"/>
</g>
<defs>
<clipPath id="clip0_239_13551">
<rect width="48" height="48" fill="white" transform="translate(0.75)"/>
</clipPath>
</defs>
</svg>
