<svg width="48" height="48" viewBox="0 0 48 48" fill="none" xmlns="http://www.w3.org/2000/svg">
<path d="M24.6874 0H23.3101C22.0009 0 20.9359 1.06494 20.9359 2.37415V2.81177H19.8926C18.9177 2.81177 18.1241 3.60498 18.1241 4.5802V4.86768H11.0142C8.76636 4.86768 6.9375 6.69653 6.9375 8.94434V43.9233C6.9375 46.1711 8.76636 48 11.0142 48H22.3579C22.7465 48 23.061 47.6851 23.061 47.2969C23.061 46.9087 22.7465 46.5938 22.3579 46.5938H11.0142C9.54163 46.5938 8.34375 45.3959 8.34375 43.9233V8.94434C8.34375 7.4718 9.54163 6.27393 11.0142 6.27393H18.1241V7.16858C18.1241 7.29272 18.1373 7.41394 18.1619 7.53113H11.0142C10.2349 7.53113 9.60059 8.16504 9.60059 8.94434V43.9233C9.60059 44.7026 10.2349 45.3365 11.0142 45.3365H36.9833C37.7626 45.3365 38.3965 44.7026 38.3965 43.9233V8.94434C38.3965 8.16504 37.7626 7.53113 36.9833 7.53113C36.2087 7.53113 30.5292 7.53113 29.8356 7.53113C29.8601 7.41394 29.8729 7.29272 29.8729 7.16858V6.27393H36.9833C38.4558 6.27393 39.6537 7.4718 39.6537 8.94434V22.359C39.6537 22.7476 39.9683 23.0621 40.3568 23.0621C40.745 23.0621 41.0599 22.7476 41.0599 22.359V8.94434C41.0599 6.69653 39.2311 4.86768 36.9833 4.86768H29.8729V4.5802C29.8729 3.60535 29.0797 2.81177 28.1049 2.81177H27.0615V2.37415C27.0615 1.06494 25.9966 0 24.6874 0ZM22.3422 2.37415C22.3422 1.84058 22.7761 1.40625 23.3101 1.40625H24.6874C25.2209 1.40625 25.6549 1.84058 25.6549 2.37415V2.81177H22.3422V2.37415ZM21.0399 8.93738H26.9579V9.52148C26.9579 9.71777 26.7916 9.88367 26.5953 9.88367H21.4017C21.2054 9.88367 21.0399 9.71777 21.0399 9.52148V8.93738ZM36.9833 43.9303H11.0142C11.0109 43.9303 11.0072 43.9263 11.0072 43.9233V8.94434C11.0072 8.94104 11.0109 8.93738 11.0142 8.93738H19.6333V9.52148C19.6333 10.4963 20.4269 11.2899 21.4017 11.2899H26.5953C27.5706 11.2899 28.3638 10.4967 28.3638 9.52148V8.93738H32.5748V11.9392C32.5748 12.7185 33.2087 13.3528 33.988 13.3528H36.9902V43.9233C36.9902 43.9266 36.9866 43.9303 36.9833 43.9303ZM33.9811 9.93164L35.996 11.9465H33.9884C33.9851 11.9465 33.9811 11.9425 33.9811 11.9392V9.93164ZM36.9902 8.94434V10.9519L34.9753 8.93738H36.9833C36.9866 8.93738 36.9902 8.94104 36.9902 8.94434ZM28.4667 4.5802V7.16858C28.4667 7.36487 28.3008 7.53113 28.1049 7.53113C25.0115 7.53113 22.9629 7.53113 19.8926 7.53113C19.6963 7.53113 19.5304 7.36487 19.5304 7.16858C19.5304 5.61914 19.5304 5.63306 19.5304 4.5802C19.5304 4.38391 19.6963 4.21802 19.8926 4.21802H28.1049C28.3011 4.21802 28.4667 4.38391 28.4667 4.5802Z" fill="#348FFF"/>
<path d="M20.3363 14.7078H27.6605C28.0487 14.7078 28.3636 14.3932 28.3636 14.0046C28.3636 13.6165 28.0487 13.3015 27.6605 13.3015H20.3363C19.9478 13.3015 19.6328 13.6165 19.6328 14.0046C19.6328 14.3932 19.9478 14.7078 20.3363 14.7078Z" fill="#348FFF"/>
<path d="M34.1455 25.2715H30.4607L28.3564 19.5897C27.7434 17.9348 25.3649 18.0484 24.9064 19.7465L22.9647 26.9356L21.6995 23.5192C21.1611 22.065 19.1594 21.917 18.4116 23.2738L17.3108 25.2715H13.8512C12.8514 25.2715 12.0381 26.0849 12.0381 27.0843C12.0381 28.084 12.8514 28.8974 13.8512 28.8974H18.3816C18.8566 28.8974 19.3048 28.7113 19.6377 28.3916L21.5354 33.5157C22.1466 35.1658 24.5244 35.0669 24.9855 33.3585L26.9271 26.1698L27.4991 27.7138C27.7614 28.4217 28.4443 28.897 29.1991 28.897H34.1455C35.1453 28.897 35.9586 28.084 35.9586 27.0843C35.9586 26.0845 35.1453 25.2715 34.1455 25.2715ZM34.1455 27.4907H29.1991C29.0299 27.4907 28.8765 27.3842 28.8179 27.2256L27.4816 23.6177C27.2435 22.9757 26.3207 23.0215 26.1434 23.6785L23.6279 32.992C23.5247 33.3747 22.9926 33.4007 22.8541 33.0271L20.4602 26.5635C20.2511 25.9988 19.474 25.9439 19.1851 26.4683L18.7375 27.2805C18.6661 27.4102 18.5295 27.4907 18.3816 27.4907H13.8512C13.6267 27.4907 13.4443 27.3084 13.4443 27.0843C13.4443 26.8598 13.6267 26.6778 13.8512 26.6778H17.7261C17.9821 26.6778 18.2183 26.5382 18.3417 26.3137L19.6432 23.9524C19.8102 23.6499 20.2599 23.6807 20.3807 24.0074L22.4103 29.4877C22.6476 30.1282 23.5708 30.085 23.7484 29.4269L26.2639 20.1134C26.3668 19.7326 26.9008 19.7084 27.0377 20.0783L29.3119 26.2189C29.4141 26.4947 29.6774 26.6778 29.9714 26.6778H34.1455C34.3696 26.6778 34.552 26.8601 34.552 27.0843C34.552 27.3084 34.3696 27.4907 34.1455 27.4907Z" fill="#348FFF"/>
<path d="M40.3563 24.937C39.9678 24.937 39.6532 25.252 39.6532 25.6401V43.9232C39.6532 45.3958 38.4553 46.5936 36.9828 46.5936H25.6387C25.2505 46.5936 24.9355 46.9086 24.9355 47.2968C24.9355 47.6849 25.2505 47.9999 25.6387 47.9999H36.9828C39.2306 47.9999 41.0594 46.171 41.0594 43.9232V25.6401C41.0594 25.252 40.7445 24.937 40.3563 24.937Z" fill="#348FFF"/>
</svg>
