<svg width="26" height="26" viewBox="0 0 26 26" fill="none" xmlns="http://www.w3.org/2000/svg">
<path d="M11.5596 14.4397H1.95953C1.55153 14.4397 1.20953 14.3017 0.933532 14.0256C0.657532 13.7494 0.519531 13.4073 0.519531 12.9991C0.519531 12.5909 0.657532 12.249 0.933532 11.9733C1.20953 11.6976 1.55153 11.5598 1.95953 11.5598H11.5596V1.95978C11.5596 1.55178 11.6976 1.20978 11.9737 0.933776C12.2498 0.657776 12.592 0.519775 13.0001 0.519775C13.4083 0.519775 13.7503 0.657776 14.0259 0.933776C14.3016 1.20978 14.4395 1.55178 14.4395 1.95978V11.5598H24.0395C24.4475 11.5598 24.7895 11.6978 25.0655 11.9739C25.3415 12.2501 25.4795 12.5922 25.4795 13.0004C25.4795 13.4086 25.3415 13.7505 25.0655 14.0262C24.7895 14.3019 24.4475 14.4397 24.0395 14.4397H14.4395V24.0397C14.4395 24.4477 14.3014 24.7897 14.0253 25.0657C13.7492 25.3417 13.407 25.4797 12.9989 25.4797C12.5907 25.4797 12.2488 25.3417 11.9731 25.0657C11.6974 24.7897 11.5596 24.4477 11.5596 24.0397V14.4397Z" fill="#2B6BDC"/>
</svg>
